# MagicaVoxel @ Ephtracy

# group
o 

# material
mtllib RabbitLong.mtl
usemtl palette

# normals
vn -1 0 0
vn 1 0 0
vn 0 0 1
vn 0 0 -1
vn 0 -1 0
vn 0 1 0

# texcoords
vt 0.248047 0.5
vt 0.486328 0.5
vt 0.794922 0.5

# verts
v 0.2 2.2 -0.4
v 0.2 2.2 -0.5
v 0.2 2.3 -0.4
v 0.2 2.3 -0.5
v 0.3 2 -0.3
v 0.3 2 -0.4
v 0.3 2 -0.5
v 0.3 2 -0.6
v 0.3 2.1 -0.4
v 0.3 2.1 -0.5
v 0.3 2.2 -0.4
v 0.3 2.2 -0.5
v 0.3 2.3 -0.3
v 0.3 2.3 -0.4
v 0.3 2.3 -0.5
v 0.3 2.3 -0.6
v 0.5 2.3 -0.3
v 0.5 2.3 -0.6
v 0.5 2.6 -0.3
v 0.5 2.6 -0.6
v 0.6 2 -0.3
v 0.6 2 -0.4
v 0.6 2 -0.5
v 0.6 2 -0.6
v 0.6 2.1 -0.3
v 0.6 2.1 -0.4
v 0.6 2.1 -0.5
v 0.6 2.1 -0.6
v 0.6 2.6 -0.3
v 0.6 2.6 -0.4
v 0.6 2.6 -0.5
v 0.6 2.6 -0.6
v 0.6 4.2 -0.3
v 0.6 4.2 -0.4
v 0.6 4.2 -0.5
v 0.6 4.2 -0.6
v 0.4 2 -0.3
v 0.4 2 -0.4
v 0.4 2 -0.5
v 0.4 2 -0.6
v 0.4 2.1 -0.3
v 0.4 2.1 -0.4
v 0.4 2.1 -0.5
v 0.4 2.1 -0.6
v 0.7 2 -0.3
v 0.7 2 -0.4
v 0.7 2 -0.5
v 0.7 2 -0.6
v 0.7 2.1 -0.4
v 0.7 2.1 -0.5
v 0.7 2.3 -0.3
v 0.7 2.3 -0.4
v 0.7 2.3 -0.5
v 0.7 2.3 -0.6
v 0.7 2.6 -0.3
v 0.7 2.6 -0.4
v 0.7 2.6 -0.5
v 0.7 2.6 -0.6
v 0.7 4.2 -0.3
v 0.7 4.2 -0.4
v 0.7 4.2 -0.5
v 0.7 4.2 -0.6
v 0.8 2.3 -0.3
v 0.8 2.3 -0.4
v 0.8 2.3 -0.5
v 0.8 2.3 -0.6
v 0.8 2.4 -0.3
v 0.8 2.4 -0.4
v 0.8 2.4 -0.5
v 0.8 2.4 -0.6
v 0.8 2.5 -0.3
v 0.8 2.5 -0.4
v 0.8 2.5 -0.5
v 0.8 2.5 -0.6
v 0.8 2.6 -0.3
v 0.8 2.6 -0.6
v 0.9 2.3 -0.4
v 0.9 2.3 -0.5
v 0.9 2.4 -0.4
v 0.9 2.4 -0.5
v 0.3 2 -0.3
v 0.3 2.3 -0.3
v 0.4 2 -0.3
v 0.4 2.1 -0.3
v 0.5 2.3 -0.3
v 0.5 2.6 -0.3
v 0.6 2 -0.3
v 0.6 2.1 -0.3
v 0.6 2.6 -0.3
v 0.6 4.2 -0.3
v 0.7 2 -0.3
v 0.7 2.3 -0.3
v 0.7 2.4 -0.3
v 0.7 2.5 -0.3
v 0.7 2.6 -0.3
v 0.7 4.2 -0.3
v 0.8 2.3 -0.3
v 0.8 2.4 -0.3
v 0.8 2.5 -0.3
v 0.8 2.6 -0.3
v 0.2 2.2 -0.4
v 0.2 2.3 -0.4
v 0.3 2.2 -0.4
v 0.3 2.3 -0.4
v 0.8 2.3 -0.4
v 0.8 2.4 -0.4
v 0.9 2.3 -0.4
v 0.9 2.4 -0.4
v 0.3 2 -0.5
v 0.3 2.1 -0.5
v 0.4 2 -0.5
v 0.4 2.1 -0.5
v 0.6 2 -0.5
v 0.6 2.1 -0.5
v 0.6 2.6 -0.5
v 0.6 4.2 -0.5
v 0.7 2 -0.5
v 0.7 2.1 -0.5
v 0.7 2.6 -0.5
v 0.7 4.2 -0.5
v 0.3 2 -0.4
v 0.3 2.1 -0.4
v 0.4 2 -0.4
v 0.4 2.1 -0.4
v 0.6 2 -0.4
v 0.6 2.1 -0.4
v 0.6 2.6 -0.4
v 0.6 4.2 -0.4
v 0.7 2 -0.4
v 0.7 2.1 -0.4
v 0.7 2.6 -0.4
v 0.7 4.2 -0.4
v 0.2 2.2 -0.5
v 0.2 2.3 -0.5
v 0.3 2.2 -0.5
v 0.3 2.3 -0.5
v 0.8 2.3 -0.5
v 0.8 2.4 -0.5
v 0.9 2.3 -0.5
v 0.9 2.4 -0.5
v 0.3 2 -0.6
v 0.3 2.3 -0.6
v 0.4 2 -0.6
v 0.4 2.1 -0.6
v 0.5 2.3 -0.6
v 0.5 2.6 -0.6
v 0.6 2 -0.6
v 0.6 2.1 -0.6
v 0.6 2.6 -0.6
v 0.6 4.2 -0.6
v 0.7 2 -0.6
v 0.7 2.3 -0.6
v 0.7 2.4 -0.6
v 0.7 2.5 -0.6
v 0.7 2.6 -0.6
v 0.7 4.2 -0.6
v 0.8 2.3 -0.6
v 0.8 2.4 -0.6
v 0.8 2.5 -0.6
v 0.8 2.6 -0.6
v 0.3 2 -0.3
v 0.4 2 -0.3
v 0.6 2 -0.3
v 0.7 2 -0.3
v 0.3 2 -0.4
v 0.4 2 -0.4
v 0.6 2 -0.4
v 0.7 2 -0.4
v 0.3 2 -0.5
v 0.4 2 -0.5
v 0.6 2 -0.5
v 0.7 2 -0.5
v 0.3 2 -0.6
v 0.4 2 -0.6
v 0.6 2 -0.6
v 0.7 2 -0.6
v 0.4 2.1 -0.3
v 0.6 2.1 -0.3
v 0.3 2.1 -0.4
v 0.4 2.1 -0.4
v 0.6 2.1 -0.4
v 0.7 2.1 -0.4
v 0.3 2.1 -0.5
v 0.4 2.1 -0.5
v 0.6 2.1 -0.5
v 0.7 2.1 -0.5
v 0.4 2.1 -0.6
v 0.6 2.1 -0.6
v 0.2 2.2 -0.4
v 0.3 2.2 -0.4
v 0.2 2.2 -0.5
v 0.3 2.2 -0.5
v 0.7 2.3 -0.3
v 0.8 2.3 -0.3
v 0.7 2.3 -0.4
v 0.8 2.3 -0.4
v 0.9 2.3 -0.4
v 0.7 2.3 -0.5
v 0.8 2.3 -0.5
v 0.9 2.3 -0.5
v 0.7 2.3 -0.6
v 0.8 2.3 -0.6
v 0.3 2.3 -0.3
v 0.5 2.3 -0.3
v 0.2 2.3 -0.4
v 0.3 2.3 -0.4
v 0.2 2.3 -0.5
v 0.3 2.3 -0.5
v 0.3 2.3 -0.6
v 0.5 2.3 -0.6
v 0.8 2.4 -0.4
v 0.9 2.4 -0.4
v 0.8 2.4 -0.5
v 0.9 2.4 -0.5
v 0.5 2.6 -0.3
v 0.6 2.6 -0.3
v 0.7 2.6 -0.3
v 0.8 2.6 -0.3
v 0.6 2.6 -0.4
v 0.7 2.6 -0.4
v 0.6 2.6 -0.5
v 0.7 2.6 -0.5
v 0.5 2.6 -0.6
v 0.6 2.6 -0.6
v 0.7 2.6 -0.6
v 0.8 2.6 -0.6
v 0.6 4.2 -0.3
v 0.7 4.2 -0.3
v 0.6 4.2 -0.4
v 0.7 4.2 -0.4
v 0.6 4.2 -0.5
v 0.7 4.2 -0.5
v 0.6 4.2 -0.6
v 0.7 4.2 -0.6

# faces
f 3/3/1 2/3/1 1/3/1
f 4/3/1 2/3/1 3/3/1
f 9/3/1 6/3/1 5/3/1
f 10/3/1 8/3/1 7/3/1
f 11/3/1 9/3/1 5/3/1
f 11/3/1 10/3/1 9/3/1
f 12/3/1 8/3/1 10/3/1
f 12/3/1 10/3/1 11/3/1
f 13/3/1 11/3/1 5/3/1
f 14/3/1 11/3/1 13/3/1
f 15/3/1 8/3/1 12/3/1
f 16/3/1 8/3/1 15/3/1
f 19/3/1 18/3/1 17/3/1
f 20/3/1 18/3/1 19/3/1
f 25/3/1 22/3/1 21/3/1
f 26/3/1 22/3/1 25/3/1
f 27/3/1 24/3/1 23/3/1
f 28/3/1 24/3/1 27/3/1
f 33/3/1 30/3/1 29/3/1
f 34/3/1 30/3/1 33/3/1
f 35/3/1 32/3/1 31/3/1
f 36/3/1 32/3/1 35/3/1
f 37/3/2 38/3/2 41/3/2
f 41/3/2 38/3/2 42/3/2
f 39/3/2 40/3/2 43/3/2
f 43/3/2 40/3/2 44/3/2
f 45/3/2 46/3/2 49/3/2
f 47/3/2 48/3/2 50/3/2
f 45/3/2 49/3/2 51/3/2
f 49/3/2 50/3/2 51/3/2
f 51/3/2 50/3/2 52/3/2
f 50/3/2 48/3/2 53/3/2
f 52/3/2 50/3/2 53/3/2
f 53/3/2 48/3/2 54/3/2
f 55/3/2 56/3/2 59/3/2
f 59/3/2 56/3/2 60/3/2
f 57/3/2 58/3/2 61/3/2
f 61/3/2 58/3/2 62/3/2
f 63/3/2 64/3/2 67/3/2
f 67/3/2 64/3/2 68/3/2
f 65/3/2 66/3/2 69/3/2
f 69/3/2 66/3/2 70/3/2
f 67/2/2 68/2/2 71/2/2
f 68/3/2 69/3/2 72/3/2
f 71/2/2 68/2/2 72/2/2
f 69/2/2 70/2/2 73/2/2
f 72/3/2 69/3/2 73/3/2
f 73/2/2 70/2/2 74/2/2
f 71/3/2 72/3/2 75/3/2
f 72/3/2 73/3/2 75/3/2
f 73/3/2 74/3/2 75/3/2
f 75/3/2 74/3/2 76/3/2
f 77/1/2 78/1/2 79/1/2
f 79/1/2 78/1/2 80/1/2
f 83/3/3 82/3/3 81/3/3
f 84/3/3 82/3/3 83/3/3
f 85/3/3 82/3/3 84/3/3
f 88/3/3 85/3/3 84/3/3
f 88/3/3 86/3/3 85/3/3
f 89/3/3 86/3/3 88/3/3
f 91/3/3 88/3/3 87/3/3
f 91/3/3 90/3/3 89/3/3
f 91/3/3 89/3/3 88/3/3
f 92/3/3 90/3/3 91/3/3
f 93/3/3 90/3/3 92/3/3
f 94/3/3 90/3/3 93/3/3
f 95/3/3 90/3/3 94/3/3
f 96/3/3 90/3/3 95/3/3
f 97/3/3 93/3/3 92/3/3
f 98/2/3 94/2/3 93/2/3
f 98/3/3 93/3/3 97/3/3
f 99/3/3 95/3/3 94/3/3
f 99/2/3 94/2/3 98/2/3
f 100/3/3 95/3/3 99/3/3
f 103/3/3 102/3/3 101/3/3
f 104/3/3 102/3/3 103/3/3
f 107/1/3 106/1/3 105/1/3
f 108/1/3 106/1/3 107/1/3
f 111/3/3 110/3/3 109/3/3
f 112/3/3 110/3/3 111/3/3
f 117/3/3 114/3/3 113/3/3
f 118/3/3 114/3/3 117/3/3
f 119/3/3 116/3/3 115/3/3
f 120/3/3 116/3/3 119/3/3
f 121/3/4 122/3/4 123/3/4
f 123/3/4 122/3/4 124/3/4
f 125/3/4 126/3/4 129/3/4
f 129/3/4 126/3/4 130/3/4
f 127/3/4 128/3/4 131/3/4
f 131/3/4 128/3/4 132/3/4
f 133/3/4 134/3/4 135/3/4
f 135/3/4 134/3/4 136/3/4
f 137/1/4 138/1/4 139/1/4
f 139/1/4 138/1/4 140/1/4
f 141/3/4 142/3/4 143/3/4
f 143/3/4 142/3/4 144/3/4
f 144/3/4 142/3/4 145/3/4
f 144/3/4 145/3/4 148/3/4
f 145/3/4 146/3/4 148/3/4
f 148/3/4 146/3/4 149/3/4
f 147/3/4 148/3/4 151/3/4
f 149/3/4 150/3/4 151/3/4
f 148/3/4 149/3/4 151/3/4
f 151/3/4 150/3/4 152/3/4
f 152/3/4 150/3/4 153/3/4
f 153/3/4 150/3/4 154/3/4
f 154/3/4 150/3/4 155/3/4
f 155/3/4 150/3/4 156/3/4
f 152/3/4 153/3/4 157/3/4
f 153/2/4 154/2/4 158/2/4
f 157/3/4 153/3/4 158/3/4
f 154/3/4 155/3/4 159/3/4
f 158/2/4 154/2/4 159/2/4
f 159/3/4 155/3/4 160/3/4
f 165/3/5 162/3/5 161/3/5
f 166/3/5 162/3/5 165/3/5
f 167/3/5 164/3/5 163/3/5
f 168/3/5 164/3/5 167/3/5
f 173/3/5 170/3/5 169/3/5
f 174/3/5 170/3/5 173/3/5
f 175/3/5 172/3/5 171/3/5
f 176/3/5 172/3/5 175/3/5
f 180/3/5 178/3/5 177/3/5
f 181/3/5 178/3/5 180/3/5
f 183/3/5 180/3/5 179/3/5
f 183/3/5 182/3/5 181/3/5
f 183/3/5 181/3/5 180/3/5
f 184/3/5 182/3/5 183/3/5
f 185/3/5 182/3/5 184/3/5
f 186/3/5 182/3/5 185/3/5
f 187/3/5 185/3/5 184/3/5
f 188/3/5 185/3/5 187/3/5
f 191/3/5 190/3/5 189/3/5
f 192/3/5 190/3/5 191/3/5
f 195/3/5 194/3/5 193/3/5
f 196/3/5 194/3/5 195/3/5
f 198/1/5 196/1/5 195/1/5
f 198/1/5 197/1/5 196/1/5
f 199/1/5 197/1/5 198/1/5
f 200/1/5 197/1/5 199/1/5
f 201/3/5 199/3/5 198/3/5
f 202/3/5 199/3/5 201/3/5
f 203/3/6 204/3/6 206/3/6
f 205/3/6 206/3/6 207/3/6
f 206/3/6 204/3/6 208/3/6
f 207/3/6 206/3/6 208/3/6
f 208/3/6 204/3/6 209/3/6
f 209/3/6 204/3/6 210/3/6
f 211/1/6 212/1/6 213/1/6
f 213/1/6 212/1/6 214/1/6
f 215/3/6 216/3/6 219/3/6
f 217/3/6 218/3/6 220/3/6
f 215/3/6 219/3/6 221/3/6
f 219/3/6 220/3/6 221/3/6
f 220/3/6 218/3/6 222/3/6
f 221/3/6 220/3/6 222/3/6
f 215/3/6 221/3/6 223/3/6
f 223/3/6 221/3/6 224/3/6
f 222/3/6 218/3/6 225/3/6
f 225/3/6 218/3/6 226/3/6
f 227/3/6 228/3/6 229/3/6
f 229/3/6 228/3/6 230/3/6
f 231/3/6 232/3/6 233/3/6
f 233/3/6 232/3/6 234/3/6
